<?xml version="1.0" encoding="UTF-8"?>
<svg id="Capa_1" data-name="Capa 1" xmlns="http://www.w3.org/2000/svg" viewBox="0 0 100 100">
  <defs>
    <style>
      .cls-1 {
        fill: #fff;
        stroke-width: 0px;
      }
    </style>
  </defs>
  <g id="_93gGHt.tif" data-name="93gGHt.tif">
    <g>
      <path class="cls-1" d="M32.57,59.29c-2.2-1.14-2.92-2.28-2.65-4.25.23-1.67,1.36-2.81,3.03-3.03.25-.03.51-.04.77-.04,14.59,0,29.18,0,43.76,0,2.14,0,3.62,1.28,3.77,3.2.16,2.01-.56,3.1-2.73,4.12h-45.95Z"/>
      <path class="cls-1" d="M55.64,27.95c7.28,0,14.56,0,21.85,0,2.73,0,4.39,2.2,3.62,4.82-.44,1.47-1.47,2.27-2.98,2.46-.34.04-.69.03-1.03.03-14.36,0-28.73,0-43.09,0-.62,0-1.28-.05-1.86-.24-1.67-.56-2.52-2.23-2.2-4.16.29-1.72,1.63-2.89,3.42-2.9,5.88-.02,11.75,0,17.63,0,1.55,0,3.1,0,4.64,0Z"/>
      <path class="cls-1" d="M55.54,40.29c7.31,0,14.62,0,21.93,0,2.52,0,4,1.62,3.78,4.11-.15,1.76-1.52,3.07-3.28,3.15-.17,0-.34,0-.52,0-14.59,0-29.18,0-43.77,0-2.68,0-4.22-1.9-3.71-4.53.32-1.65,1.65-2.72,3.46-2.73,4.53-.01,9.06,0,13.59,0,2.84,0,5.68,0,8.51,0Z"/>
      <circle class="cls-1" cx="22.66" cy="31.74" r="3.96"/>
      <circle class="cls-1" cx="22.66" cy="43.6" r="3.96"/>
      <circle class="cls-1" cx="22.66" cy="55.93" r="3.96"/>
      <path class="cls-1" d="M32.57,71.62c-2.2-1.14-2.92-2.28-2.65-4.25.23-1.67,1.36-2.81,3.03-3.03.25-.03.51-.04.77-.04,14.59,0,29.18,0,43.76,0,2.14,0,3.62,1.28,3.77,3.2.16,2.01-.56,3.1-2.73,4.12h-45.95Z"/>
      <circle class="cls-1" cx="22.66" cy="68.26" r="3.96"/>
    </g>
  </g>
</svg>