<svg width="40" height="36" viewBox="0 0 40 36" fill="none" xmlns="http://www.w3.org/2000/svg">
<path d="M7.86324 1.66751H10.8789C10.8789 1.48288 10.8789 1.30385 10.8789 1.12481C10.8956 0.470214 11.3376 0.0114375 11.9419 0.0114375C12.5685 0.0114375 12.9993 0.47581 12.9993 1.14719C12.9993 1.30944 12.9993 1.47169 12.9993 1.65632H16.0541C16.0541 1.4661 16.0541 1.27587 16.0541 1.09124C16.0653 0.475809 16.5073 0.0170323 17.0891 0.0114375C17.7102 0.0114375 18.1633 0.46462 18.1689 1.09684C18.1689 1.27587 18.1689 1.4605 18.1689 1.65073C18.2641 1.66192 18.3368 1.67311 18.4095 1.67311C19.2655 1.67311 20.1215 1.67311 20.9775 1.67311C21.1678 1.67311 21.2461 1.61716 21.2293 1.42693C21.2181 1.29266 21.2181 1.15278 21.2293 1.01851C21.2685 0.425455 21.7217 -0.0053472 22.3035 0.00584248C22.863 0.0114373 23.3106 0.44224 23.3498 1.0241C23.3665 1.23111 23.305 1.54442 23.4057 1.61716C23.5624 1.72346 23.8365 1.67311 24.0659 1.67311C24.7373 1.67311 25.4143 1.66192 26.0856 1.6787C26.3486 1.68429 26.4157 1.59478 26.399 1.3542C26.3878 1.17516 26.3989 0.990535 26.4325 0.8115C26.5444 0.296775 27.0144 -0.0333214 27.5459 0.00584248C28.0662 0.0450064 28.4802 0.459025 28.5082 0.98494C28.5194 1.19195 28.525 1.40455 28.5082 1.61156C28.4914 1.81298 28.5697 1.8913 28.76 1.95285C30.4328 2.50114 31.6357 3.58095 32.3742 5.17548C32.7043 5.88602 32.8666 6.63573 32.889 7.41901C32.889 7.59245 32.8946 7.76589 32.8946 7.93933C32.8946 14.7818 32.8946 21.6243 32.8946 28.4668C32.8946 31.2978 31.1993 33.6029 28.5362 34.3414C27.9823 34.4924 27.3892 34.5596 26.813 34.5596C19.9089 34.5764 12.9993 34.5484 6.09527 34.5764C3.0293 34.5876 0.589945 32.4615 0.097599 29.7145C0.0304609 29.3396 0.0024866 28.9536 0.0024866 28.5731C-0.00310825 22.5027 0.0024866 16.4379 0.0024866 10.3675C0.0024866 9.43875 0.0024866 8.51 0.0024866 7.58126C0.0024866 4.48731 2.38589 1.91928 5.46305 1.68989C5.67006 1.67311 5.73161 1.60597 5.72042 1.41015C5.70923 1.2479 5.71482 1.08005 5.73161 0.917801C5.79874 0.391886 6.22395 0.0114372 6.74987 0.000247511C7.29257 -0.0109422 7.74015 0.358318 7.81848 0.895422C7.85205 1.136 7.85205 1.38217 7.86883 1.65632L7.86324 1.66751ZM2.11734 10.7479V11.0892C2.11734 16.9023 2.11734 22.7153 2.11734 28.5283C2.11734 30.7943 3.77901 32.4503 6.04492 32.4503C12.9881 32.4503 19.9257 32.4503 26.8689 32.4503C29.0845 32.4503 30.7573 30.7887 30.7573 28.5731C30.7573 22.7321 30.7573 16.8911 30.7573 11.0501C30.7573 10.9549 30.7573 10.8542 30.7573 10.7479H2.11734ZM7.83527 3.82152C7.83527 4.04532 7.85205 4.24673 7.83527 4.44255C7.77932 5.03561 7.32613 5.45522 6.77225 5.44403C6.17919 5.43284 5.74839 4.99085 5.72042 4.37541C5.71482 4.19638 5.72042 4.01734 5.72042 3.8439C3.59997 3.65368 1.66415 6.26087 2.1565 8.58833H30.735C31.0483 6.69727 29.9181 4.45374 28.525 4.18519C28.525 4.24114 28.5138 4.29149 28.5138 4.34744C28.4858 4.99085 28.0494 5.44403 27.4564 5.43843C26.8409 5.43843 26.3934 4.95728 26.3934 4.29709C26.3934 4.14043 26.3934 3.97818 26.3934 3.81593H23.3386C23.3386 4.05651 23.361 4.2859 23.3386 4.5041C23.2714 5.05799 22.8127 5.44962 22.27 5.43843C21.7161 5.42724 21.2797 5.00763 21.2349 4.44255C21.2237 4.31387 21.2181 4.18519 21.2349 4.0621C21.2573 3.85509 21.1734 3.79915 20.972 3.79915C20.1271 3.81034 19.2823 3.79915 18.4319 3.79915C18.3536 3.79915 18.2752 3.81593 18.1801 3.82152C18.1801 4.02294 18.1801 4.20757 18.1801 4.3866C18.1633 4.97406 17.7158 5.42165 17.1339 5.43284C16.5464 5.44403 16.0821 4.99085 16.0653 4.3866C16.0597 4.19638 16.0653 4.01175 16.0653 3.79915C15.9254 3.79915 15.8247 3.79915 15.7296 3.79915C15.0023 3.79915 14.2749 3.79915 13.5476 3.79915C13.1933 3.79915 13.0142 3.97445 13.0105 4.32506C13.0105 4.95728 12.5741 5.42165 11.9754 5.43284C11.3768 5.44403 10.9068 4.97406 10.89 4.33625C10.89 4.1684 10.89 3.99496 10.89 3.81033H7.84646L7.83527 3.82152Z" fill="white"/>
<path d="M10.9963 17.3052H8.05902V14.3511H10.9963V17.3052Z" fill="white"/>
<path d="M10.9964 20.3933V23.3362H8.05347V20.3933H10.9964Z" fill="white"/>
<path d="M21.8895 23.3418V20.3933H24.8268V23.3418H21.8895Z" fill="white"/>
<path d="M21.8951 14.3398H24.8324V17.2939H21.8951V14.3398Z" fill="white"/>
<path d="M14.9743 14.3398H17.9116V17.2883H14.9743V14.3398Z" fill="white"/>
<path d="M17.9172 20.3933V23.3418H14.9799V20.3933H17.9172Z" fill="white"/>
<path d="M8.04791 29.3619V26.447H11.0132C11.0132 26.6428 11.0132 26.8331 11.0132 27.0177C11.0132 27.7338 11.0132 28.4556 11.0132 29.1717C11.0132 29.2948 11.0132 29.4067 10.8397 29.4067C9.93338 29.4011 9.02141 29.4011 8.11505 29.3955C8.09827 29.3955 8.08148 29.3787 8.04791 29.3675V29.3619Z" fill="white"/>
<path d="M21.8839 26.4414H24.838V29.3843H21.8839V26.4414Z" fill="white"/>
<path d="M14.9687 26.4358H17.906V29.3843H14.9687V26.4358Z" fill="white"/>
<path d="M33.3701 35.4883C37.0317 35.4883 40 32.52 40 28.8584C40 25.1968 37.0317 22.2285 33.3701 22.2285C29.7085 22.2285 26.7402 25.1968 26.7402 28.8584C26.7402 32.52 29.7085 35.4883 33.3701 35.4883Z" fill="white"/>
<path d="M33.3701 34.3695C36.4137 34.3695 38.881 31.9022 38.881 28.8586C38.881 25.815 36.4137 23.3477 33.3701 23.3477C30.3265 23.3477 27.8592 25.815 27.8592 28.8586C27.8592 31.9022 30.3265 34.3695 33.3701 34.3695Z" stroke="white" stroke-miterlimit="10"/>
<path d="M32.3463 29.7314C32.6484 29.4237 32.9393 29.1327 33.2303 28.8362C33.8737 28.1928 34.5171 27.5494 35.1605 26.9004C35.6304 26.4248 36.3354 26.6486 36.4865 27.1969C36.5704 27.499 36.4865 27.762 36.2627 27.9802C35.4906 28.7523 34.7185 29.5244 33.9408 30.2964C33.5771 30.6601 33.2135 31.035 32.8386 31.3874C32.5365 31.6728 32.0945 31.6504 31.798 31.3595C31.3448 30.9119 30.8916 30.4531 30.444 29.9999C30.1643 29.7146 30.1587 29.2446 30.4216 28.9649C30.7126 28.6572 31.1602 28.6068 31.4735 28.8754C31.7308 29.0992 31.9602 29.3453 32.2008 29.5859C32.24 29.6251 32.2847 29.6642 32.3519 29.7258L32.3463 29.7314Z" fill="#7B61FF"/>
</svg>
