<?xml version="1.0" encoding="utf-8"?>
<!-- Generator: Adobe Illustrator 28.2.0, SVG Export Plug-In . SVG Version: 6.00 Build 0)  -->
<svg version="1.1" id="Capa_1" xmlns="http://www.w3.org/2000/svg" xmlns:xlink="http://www.w3.org/1999/xlink" x="0px" y="0px"
	 viewBox="0 0 100 100" style="enable-background:new 0 0 100 100;" xml:space="preserve">
<style type="text/css">
	.st0{fill:none;stroke:#FFFFFF;stroke-width:3;stroke-miterlimit:10;}
</style>
<path class="st0" d="M17.2,15h23.1c2.4,0,4.4,2,4.4,4.4v8.7c0,2.4-2,4.4-4.4,4.4H17.2c-2.4,0-4.4-2-4.4-4.4v-8.7
	C12.8,17,14.8,15,17.2,15z"/>
<path class="st0" d="M59.7,67.5h23.1c2.4,0,4.4,2,4.4,4.4v8.7c0,2.4-2,4.4-4.4,4.4H59.7c-2.4,0-4.4-2-4.4-4.4v-8.7
	C55.3,69.5,57.3,67.5,59.7,67.5z"/>
<path class="st0" d="M19.7,38.7h18.2c3.8,0,6.8,3.1,6.8,6.8v32.1c0,3.8-3.1,6.8-6.8,6.8H19.7c-3.8,0-6.8-3.1-6.8-6.8V45.5
	C12.8,41.7,15.9,38.7,19.7,38.7z"/>
<path class="st0" d="M62.1,15.8h18.2c3.8,0,6.8,3.1,6.8,6.8v32.1c0,3.8-3.1,6.8-6.8,6.8H62.1c-3.8,0-6.8-3.1-6.8-6.8V22.6
	C55.3,18.9,58.4,15.8,62.1,15.8z"/>
</svg>
